<svg width="114" height="123" viewBox="0 0 114 123" fill="none" xmlns="http://www.w3.org/2000/svg">
<path d="M50.0044 1.62599L50.0074 1.62563C58.7831 0.551514 67.0964 1.7572 75.3912 5.31895L75.397 5.32147L78.9615 6.87875C79.3529 7.04974 79.5925 7.45042 79.5579 7.87612C79.5233 8.30182 79.2221 8.65855 78.8083 8.7641L73.7054 10.0654C73.7031 10.066 73.7009 10.0666 73.6986 10.0672C71.6191 10.628 69.3586 11.2975 67.9053 11.7694C69.387 12.0239 71.7246 12.3246 73.7099 12.5239C74.2711 12.5763 74.7921 12.6208 75.2742 12.6621C76.2979 12.7496 77.1467 12.8222 77.8351 12.923C78.8721 13.0747 79.7396 13.3118 80.485 13.8828C81.2161 14.4428 81.7198 15.2416 82.2268 16.2566C82.571 16.9458 82.9527 17.813 83.4184 18.8714C83.6354 19.3645 83.8706 19.899 84.1289 20.4764L84.1295 20.4778C84.7156 21.7936 85.2766 23.0012 85.7599 23.9918C85.7993 22.935 85.8224 21.6759 85.8224 20.3375L85.8225 20.3312L85.8644 13.7233C85.867 13.3158 86.1165 12.9507 86.4952 12.8002C86.8739 12.6498 87.3059 12.7442 87.5874 13.0388L90.5222 16.1105C99.9927 26.0027 104.832 40.1838 103.375 53.6948C101.834 68.0786 94.2168 80.8481 82.5986 88.6362L82.5957 88.6382C80.7399 89.8726 78.1787 91.2633 75.7839 92.4065C73.4171 93.5364 71.0961 94.4814 69.7483 94.7612L69.7483 94.7613L69.7418 94.7626L68.4838 95.0151C68.1094 95.0903 67.725 94.9457 67.4929 94.6425C67.2608 94.3394 67.2216 93.9305 67.3919 93.5888L69.3209 89.7166L69.3242 89.7101C71.6884 85.0491 77.7881 74.5353 80.5815 70.3722C82.761 67.1125 87.5382 61.2616 92.0803 56.2808L92.0925 56.2677C92.6389 55.6896 93.1475 55.1283 93.5745 54.6414C93.301 54.6685 92.9967 54.7017 92.6606 54.7412C90.6002 54.9831 87.4523 55.4483 83.1251 56.1528C74.476 57.5611 61.1699 59.9165 42.5513 63.3255C35.0034 64.7144 28.0532 65.9979 22.9429 66.9448C20.3877 67.4183 18.2927 67.8075 16.8131 68.0836C16.0732 68.2217 15.4877 68.3314 15.0756 68.4091C14.8695 68.448 14.7075 68.4788 14.5916 68.501C14.5336 68.5122 14.4881 68.521 14.4548 68.5276C14.4323 68.532 14.4191 68.5347 14.4126 68.536C14.1468 68.5994 13.8471 68.6091 13.5394 68.5117C13.2277 68.4132 12.9849 68.2293 12.7996 68.0282C12.4594 67.6591 12.2267 67.1345 12.0328 66.5938C12.0283 66.5814 12.0241 66.5689 12.0201 66.5563C11.8835 66.1219 11.7753 65.6821 11.7184 65.3147C11.6907 65.1351 11.6699 64.9399 11.6735 64.7571C11.6752 64.6668 11.6833 64.5469 11.7135 64.4188C11.739 64.3108 11.8074 64.0742 12.014 63.8668C12.0321 63.8487 12.0509 63.8313 12.0703 63.8146C12.164 63.7339 12.2516 63.6895 12.2788 63.6758C12.318 63.6561 12.3515 63.6424 12.3719 63.6344C12.413 63.6182 12.45 63.6064 12.4733 63.5993C12.5225 63.5842 12.5765 63.5699 12.6267 63.5573C12.7304 63.5312 12.8695 63.4994 13.0356 63.463C13.3703 63.3896 13.8471 63.2908 14.4424 63.1708C15.6346 62.9305 17.3202 62.6017 19.3353 62.2148C23.3665 61.4409 28.7259 60.433 34.1159 59.4332C39.5058 58.4333 44.9283 57.4412 49.0856 56.6988C51.1638 56.3277 52.9282 56.0186 54.2152 55.8021C54.3867 55.7732 54.5501 55.7459 54.7048 55.7204C54.4976 55.4968 54.2695 55.2549 54.0269 55.0023C53.0584 54.0306 52.5998 53.6243 52.2611 53.4398C52.0433 53.3212 51.8773 53.2856 51.3204 53.3568C50.4624 53.4964 41.2247 55.2922 30.7021 57.4295C25.4147 58.5035 20.5886 59.4512 17.0784 60.1253C15.3235 60.4623 13.8961 60.7311 12.9036 60.9133C12.408 61.0043 12.0179 61.0742 11.7488 61.1203C11.6154 61.1431 11.5057 61.1611 11.4259 61.173C11.388 61.1786 11.3455 61.1846 11.3066 61.1888C11.2903 61.1905 11.2542 61.1942 11.212 61.1956C11.1943 61.1962 11.1455 61.1976 11.0843 61.1921C11.0553 61.1895 10.9929 61.1829 10.9164 61.1627L10.9143 61.1621C10.868 61.15 10.6542 61.0937 10.4624 60.9013L10.4624 60.9012C10.3359 60.7743 10.2664 60.6379 10.2446 60.595C10.2111 60.5294 10.1837 60.464 10.1624 60.4096C10.1192 60.2994 10.0769 60.1715 10.0374 60.0443C9.95757 59.7867 9.86929 59.4647 9.785 59.1475C9.78286 59.1394 9.78082 59.1314 9.77889 59.1233C9.71912 58.8733 9.64424 58.5441 9.65581 58.2269C9.67029 57.8297 9.81861 57.427 10.1835 57.1177C10.4745 56.8711 10.8371 56.7461 11.1328 56.6621C11.447 56.5729 11.8426 56.4901 12.3019 56.3979C13.0799 56.2192 17.0169 55.429 22.2001 54.3885C24.7831 53.87 27.6756 53.2894 30.6409 52.6914L30.6462 52.6904C35.1499 51.8074 39.2654 50.9665 42.2798 50.331C43.4781 50.0784 44.5008 49.8585 45.3039 49.6815C45.1306 49.5822 44.9463 49.4805 44.7532 49.3779L44.7532 49.3779L44.7462 49.3741L42.4277 48.1183L27.484 51.2823C27.4835 51.2824 27.483 51.2825 27.4825 51.2826C23.3251 52.1753 19.4433 52.9962 16.5218 53.6141L16.3995 53.6399C14.9314 53.9504 13.7138 54.208 12.8343 54.3958C12.3944 54.4897 12.0408 54.5659 11.7834 54.6223C11.6546 54.6506 11.5517 54.6735 11.4749 54.6911C11.4366 54.6998 11.4063 54.7069 11.3835 54.7124C11.3692 54.7158 11.3603 54.718 11.3554 54.7193C10.9599 54.8346 10.2574 54.979 9.67225 54.4652C9.42045 54.244 9.27868 53.9696 9.18977 53.7445C9.09942 53.5159 9.03345 53.2585 8.97735 52.9995L8.97397 52.9833C8.9046 52.6351 8.85555 52.2859 8.83632 51.9966C8.82695 51.8554 8.82274 51.7013 8.83377 51.5573C8.83917 51.4869 8.85025 51.3896 8.87764 51.2847C8.89673 51.2116 8.96019 50.9802 9.16243 50.7773L9.16252 50.7774C9.24903 50.6904 9.32685 50.6431 9.3473 50.6306L9.34989 50.629C9.40323 50.5963 9.44859 50.5754 9.47068 50.5656C9.51723 50.5449 9.55701 50.5313 9.57485 50.5254C9.61552 50.5118 9.65585 50.5006 9.68472 50.4928C9.74706 50.476 9.82699 50.4566 9.91652 50.4356C10.0986 50.393 10.3574 50.3358 10.678 50.2667C11.321 50.1282 12.2324 49.9379 13.3216 49.7138C15.5009 49.2654 18.4018 48.6797 21.312 48.0982C24.2223 47.5166 27.1437 46.9389 29.3644 46.5064C30.4745 46.2902 31.4112 46.11 32.0844 45.9837C32.2595 45.9508 32.4175 45.9215 32.5567 45.896C32.5615 45.8011 32.5644 45.6983 32.5644 45.5907C32.5644 45.1657 32.3735 44.7231 32.048 44.3858C31.7205 44.0465 31.3302 43.886 30.9957 43.8965C30.9853 43.8968 30.9748 43.897 30.9644 43.897C30.9656 43.897 30.9655 43.8971 30.9641 43.8972C30.9543 43.8983 30.8779 43.9039 30.6952 43.9283C30.5106 43.953 30.2625 43.9902 29.9553 44.0396C29.3419 44.1381 28.5129 44.2815 27.5251 44.4598C25.5507 44.8163 22.9567 45.3097 20.2146 45.8559C17.4651 46.4036 14.9422 46.889 13.0937 47.222C12.1709 47.3882 11.408 47.5179 10.8665 47.5985C10.5984 47.6383 10.369 47.6685 10.1962 47.6842C10.1141 47.6917 10.0172 47.6986 9.92549 47.6974C9.88412 47.6969 9.80351 47.6946 9.71057 47.6775C9.66501 47.6691 9.58032 47.6508 9.48229 47.6086C9.41217 47.5784 9.25193 47.5011 9.10964 47.3337C8.9683 47.1687 8.9136 47.0006 8.89474 46.9394C8.86594 46.846 8.85204 46.7607 8.84437 46.7014C8.82878 46.5807 8.82505 46.4532 8.8252 46.3396C8.8255 46.1059 8.84313 45.8095 8.87116 45.4807C8.92776 44.8168 9.03408 43.9389 9.16905 42.988C9.43847 41.0898 9.83166 38.8341 10.1989 37.3166L10.2001 37.3116C14.8268 18.6082 31.1355 3.99323 50.0044 1.62599ZM33.3966 45.7692C33.3698 45.7692 33.3436 45.7702 33.3182 45.7722C33.3442 45.7704 33.3709 45.7692 33.3966 45.7692ZM48.6681 17.4015L48.6735 17.4015C55.6154 17.487 60.9624 18.5583 66.1929 21.0303C66.922 21.3648 67.6137 21.6756 68.1411 21.9017C68.2451 21.9463 68.3413 21.987 68.4292 22.0235C68.4756 21.9534 68.526 21.8756 68.5802 21.7902C68.9055 21.2779 69.3237 20.562 69.7576 19.7743C69.7582 19.7732 69.7588 19.7721 69.7594 19.771L70.8431 17.7673L68.5429 16.7018C68.542 16.7014 68.5411 16.701 68.5403 16.7006C64.9292 15.0536 59.6498 13.4397 55.9241 12.8228C54.0447 12.522 50.7535 12.4149 47.8035 12.4829C46.3361 12.5167 44.9833 12.5932 43.9621 12.7054C43.4833 12.7579 43.097 12.8163 42.8139 12.8767C42.817 12.9661 42.822 13.0666 42.8289 13.1776C42.8633 13.7244 42.9429 14.459 43.0644 15.2532L43.4252 17.3652L48.6681 17.4015ZM42.4363 12.9835C42.4369 12.9834 42.4406 12.9817 42.4469 12.9783C42.4389 12.9818 42.4356 12.9836 42.4363 12.9835ZM85.3616 30.1261L85.3568 30.1199C84.4245 28.8994 82.6547 26.9159 81.4293 25.7271L81.4242 25.722C80.8742 25.1807 80.4778 24.7933 80.1702 24.5172C79.9847 24.3508 79.8567 24.2484 79.7703 24.1863C79.7301 24.2171 79.6779 24.2581 79.6111 24.3124C79.6015 24.3202 79.5918 24.3278 79.5819 24.3352C79.1929 24.628 78.212 25.674 77.4751 26.6602C77.4677 26.67 77.4602 26.6798 77.4524 26.6894L76.5853 27.7644L78.6041 29.8227L78.6078 29.8266C83.4276 34.7935 86.9118 41.0957 88.548 47.7074L88.5501 47.7159C88.7783 48.6738 89.0061 49.5571 89.1863 50.2134C89.2325 50.3814 89.2751 50.5331 89.3135 50.6664C89.3779 50.6605 89.4473 50.6537 89.5214 50.6458C90.0699 50.5877 90.7972 50.4821 91.5396 50.3553C92.2816 50.2286 93.0205 50.0838 93.5922 49.9498C93.7644 49.9095 93.9161 49.8713 94.0448 49.8362C94.0379 49.741 94.0272 49.6298 94.0117 49.5021C93.9413 48.9203 93.7891 48.1198 93.5705 47.1934C93.1341 45.3435 92.456 43.0873 91.7225 41.247L91.7218 41.2452C90.289 37.6295 87.82 33.2926 85.3616 30.1261ZM56.8184 26.5718L56.8017 26.5677C53.9389 25.8393 48.647 25.4688 45.8689 25.7517L45.8606 25.7525L45.044 25.8287L45.2116 27.8194C45.2944 28.6078 45.3869 29.38 45.4733 29.9875C45.5098 30.2435 45.5444 30.4645 45.5758 30.6422C45.7187 30.6672 45.9055 30.6928 46.1426 30.7172C46.914 30.7966 48.0714 30.8488 49.6325 30.8698C51.6629 30.8699 53.0076 30.9109 54.1996 31.0915C55.4102 31.2749 56.4277 31.5966 57.8103 32.1088C57.8941 32.1389 57.9761 32.1684 58.0563 32.1972C59.0851 32.5669 59.8233 32.8322 60.4003 32.9968C61.0367 33.1784 61.3218 33.188 61.4706 33.1599C61.5571 33.1436 61.6761 33.1044 61.9139 32.8255C62.1774 32.5165 62.4705 32.0553 62.9428 31.3119L62.9553 31.2922C63.3885 30.6091 63.7787 29.9595 64.0584 29.4695C64.0851 29.4228 64.1106 29.3778 64.1349 29.3347C64.1107 29.3217 64.0858 29.3084 64.0599 29.2948C63.5426 29.0223 62.7955 28.6818 61.939 28.327C60.2195 27.6149 58.1687 26.8907 56.8184 26.5718ZM81.0904 52.232C81.0903 52.2326 81.0909 52.2306 81.0916 52.2254C81.0908 52.2292 81.0904 52.2314 81.0904 52.232ZM80.9793 51.9511C81.0173 51.9415 81.053 51.9322 81.0865 51.9233C81.0649 51.687 81.0099 51.3681 80.9159 50.9698C80.7088 50.0926 80.3409 48.9481 79.8644 47.692C78.9101 45.1758 77.5678 42.3352 76.3427 40.4596C75.2865 38.8701 73.4892 36.6577 72.4084 35.5712L71.1477 34.3575L69.7004 36.1518L69.6944 36.1593L68.1344 38.1321L69.7339 39.8609L69.7485 39.877C72.5312 43.019 74.2384 46.0964 75.4534 50.2772C75.6976 51.1146 75.9598 51.8719 76.176 52.4094C76.2161 52.5091 76.2535 52.5983 76.2877 52.6769C77.1733 52.6039 78.3344 52.4513 79.3686 52.2755C80.0064 52.167 80.5726 52.0537 80.9793 51.9511ZM56.9118 40.963C56.9707 40.8271 57.0188 40.708 57.0567 40.6064C57.0189 40.5836 56.9772 40.5594 56.9315 40.5338C56.5846 40.3394 56.1018 40.1191 55.5745 39.9227C54.699 39.6137 52.4879 39.2743 50.3373 39.079C49.2813 38.9832 48.2888 38.9264 47.5437 38.9233C47.352 38.9225 47.1833 38.9253 47.0387 38.9312C47.0389 38.9358 47.0391 38.9405 47.0393 38.9452C47.0584 39.3924 47.1171 39.9968 47.217 40.6388L47.218 40.6452C47.2635 40.9511 47.3041 41.2301 47.3412 41.4856C47.4447 42.198 47.5217 42.7278 47.6072 43.1482C47.727 43.7374 47.8267 43.8869 47.8619 43.9258C47.8674 43.9319 47.8794 43.9462 47.9319 43.9682C47.9963 43.9953 48.1095 44.0286 48.3131 44.0594C48.6267 44.107 49.013 44.1316 49.5591 44.1665C49.7707 44.18 50.0064 44.195 50.2711 44.2135C51.197 44.2571 52.1308 44.3434 52.9014 44.4407C53.613 44.5306 54.2745 44.6404 54.643 44.7561C54.6491 44.7505 54.6557 44.7443 54.6629 44.7373C54.896 44.5104 55.2459 43.9977 55.9368 42.8494C56.339 42.1627 56.6853 41.4855 56.9118 40.963ZM67.656 53.0446L67.6557 53.0437C66.9847 50.5082 65.8019 48.2805 64.041 46.1083C63.612 45.6166 63.1968 45.1595 62.8713 44.8178C62.8678 44.8141 62.8643 44.8104 62.8609 44.8068C62.7186 44.9557 62.5529 45.1372 62.3656 45.3506C61.7164 46.0904 60.8629 47.1503 59.9308 48.3979C60.0079 48.6143 60.1958 48.9632 60.5553 49.4843L60.5651 49.4988C61.1993 50.4536 62.0338 52.1294 62.4388 53.3036C62.6208 53.8313 62.8111 54.3232 62.9674 54.686C62.9844 54.7252 63.0006 54.7624 63.0162 54.7974C63.0501 54.7952 63.0858 54.7928 63.1235 54.79C63.5146 54.7612 64.0427 54.7022 64.6292 54.6222C65.7646 54.4673 67.05 54.2428 67.9005 54.032C67.8526 53.7986 67.773 53.4851 67.656 53.0446ZM62.355 44.3083C62.3541 44.3078 62.3574 44.3105 62.3644 44.3157C62.3587 44.3111 62.3557 44.3087 62.355 44.3083ZM59.8974 48.2791C59.8971 48.279 59.8974 48.2827 59.899 48.2909C59.8985 48.2834 59.8977 48.2793 59.8974 48.2791Z" fill="#0000FF" stroke="#999999" stroke-width="2" stroke-linejoin="round"/>
<path d="M60.6186 63.0883L60.6187 63.0882C69.4891 61.2405 77.5752 59.5585 78.6522 59.3421C80.0037 59.0544 80.9727 58.8794 81.5702 58.8794C81.7296 58.8794 81.9167 58.8908 82.1025 58.9386C82.2802 58.9843 82.5654 59.0912 82.7846 59.3649C83.0297 59.671 83.0624 60.0191 83.0233 60.2775C82.9886 60.5076 82.8957 60.6956 82.8271 60.8161C82.8105 60.8454 82.7923 60.8738 82.7728 60.9012C82.7333 60.9567 82.6344 61.1 82.4885 61.3115C81.9953 62.0263 80.9648 63.5198 79.8758 65.0307L79.8757 65.0308C73.3184 74.1272 67.3931 83.8034 63.1435 92.3337L61.2564 96.1217C61.0816 96.4726 60.7178 96.689 60.326 96.6752L54.3712 96.4647L54.3698 96.4647C47.3843 96.2082 43.2753 95.3441 37.4437 92.8051C29.9047 89.5375 22.1623 83.3196 17.771 76.9679L17.769 76.9649L16.0077 74.3975C15.8269 74.1339 15.7829 73.7999 15.8894 73.4985C15.996 73.1972 16.2401 72.9649 16.5463 72.8735L18.098 72.4106L18.098 72.4105L18.1061 72.4082C20.6271 71.6791 43.0716 66.745 60.6186 63.0883Z" fill="#0000FF" stroke="#999999" stroke-width="2" stroke-linejoin="round"/>
<path d="M4.91161 120.75L4.89641 120.74C4.21838 120.268 3.61789 119.787 3.1316 119.18C2.63445 118.559 2.29256 117.852 2.05818 116.965C1.60921 115.267 1.53223 112.787 1.53223 108.766V101.484C1.53223 100.932 1.97994 100.484 2.53223 100.484H4.41932H6.30642C6.85871 100.484 7.30642 100.932 7.30642 101.484V104.388V105.848L7.61867 105.73C10.0871 104.726 12.764 105.414 14.6867 107.342C16.5436 109.183 17.146 112.033 16.8451 114.591C16.5454 117.139 15.3066 119.726 13.0712 120.926C11.8376 121.594 10.3163 121.879 8.88619 121.85C7.46316 121.821 5.9995 121.478 4.91161 120.75ZM11.0295 114.46L11.0299 114.458C11.1523 113.859 11.0668 112.989 10.8058 112.175C10.6787 111.779 10.5219 111.434 10.36 111.176C10.1905 110.905 10.0629 110.804 10.0243 110.782C9.28116 110.388 8.76523 110.494 8.40483 110.775C7.97777 111.108 7.54133 111.866 7.4286 113.186L7.4287 113.186L7.4273 113.2C7.34453 114.031 7.35122 114.462 7.41906 114.768C7.47745 115.032 7.5959 115.27 7.92022 115.668L7.93307 115.684C8.56301 116.49 9.21072 116.579 9.66579 116.425C10.1709 116.255 10.7854 115.667 11.0295 114.46Z" fill="#0000FF" stroke="#999999" stroke-width="2" stroke-linejoin="round"/>
<path d="M106.325 105.859L106.325 105.859L106.333 105.864C106.338 105.866 106.342 105.869 106.347 105.871C106.362 105.448 106.371 104.955 106.371 104.431V101.484C106.371 100.932 106.819 100.484 107.371 100.484H109.258H111.145C111.697 100.484 112.145 100.932 112.145 101.484V108.555C112.145 111.817 112.126 113.69 111.987 114.956C111.84 116.305 111.551 117.015 111.068 117.94C109.752 120.482 107.382 121.845 104.436 121.845C102.137 121.845 100.177 121.037 98.8 119.524C97.4321 118.022 96.7258 115.92 96.7258 113.48C96.7258 110.572 97.8767 108.074 99.6769 106.581C101.502 105.067 103.967 104.626 106.325 105.859ZM105.179 110.783L105.179 110.783L105.174 110.781C104.465 110.395 103.962 110.498 103.599 110.786C103.17 111.127 102.734 111.892 102.622 113.187L102.622 113.187L102.621 113.2C102.538 114.031 102.545 114.462 102.613 114.768C102.671 115.032 102.79 115.27 103.114 115.668L103.125 115.682C103.915 116.689 104.986 116.63 105.534 116.014L105.534 116.014L105.537 116.01C106.053 115.436 106.341 114.31 106.228 113.099C106.175 112.517 106.032 111.982 105.829 111.563C105.623 111.137 105.386 110.895 105.179 110.783Z" fill="#0000FF" stroke="#999999" stroke-width="2" stroke-linejoin="round"/>
<path d="M40.0161 104.22V105.535H40.9452H42.8323C43.1115 105.535 43.378 105.652 43.5673 105.857C43.7566 106.062 43.8515 106.337 43.829 106.615L43.7032 108.173C43.6734 108.542 43.6431 108.91 43.5766 109.215C43.5065 109.535 43.3688 109.926 43.0229 110.236C42.6932 110.532 42.2987 110.641 41.9828 110.698C41.6653 110.756 41.2739 110.785 40.8489 110.815L40.8473 110.815L40.0067 110.874L40.0994 113.571L40.1944 116.336L41.0184 116.396L41.0221 116.397C41.4298 116.428 41.7984 116.463 42.1084 116.525C42.4186 116.586 42.7658 116.691 43.0718 116.925C43.3993 117.175 43.5798 117.493 43.6905 117.801C43.7912 118.08 43.8505 118.399 43.9017 118.698C43.9051 118.717 43.9079 118.737 43.9101 118.757C43.953 119.145 43.9874 119.53 43.9993 119.839C44.0051 119.99 44.0066 120.149 43.9959 120.292C43.9906 120.361 43.9805 120.456 43.9561 120.558L43.9554 120.56C43.9413 120.62 43.885 120.854 43.6901 121.063C43.5439 121.221 43.3796 121.313 43.2731 121.364C43.1539 121.422 43.0318 121.464 42.922 121.496C42.7026 121.56 42.4514 121.606 42.1984 121.641C41.6873 121.71 41.0619 121.747 40.4341 121.756C39.8036 121.764 39.1454 121.743 38.5648 121.692C38.016 121.643 37.4348 121.559 37.0205 121.399C37.0125 121.396 37.0044 121.393 36.9964 121.39C36.4757 121.173 35.997 120.884 35.5946 120.459C35.1908 120.032 34.9106 119.516 34.715 118.911C34.3404 117.753 34.2419 116.14 34.2419 113.9C34.2419 112.961 34.2392 112.262 34.2221 111.732C34.2072 111.27 34.1822 110.984 34.1516 110.805C33.6415 110.743 33.0475 110.559 32.6609 109.946C32.347 109.448 32.2725 108.794 32.2319 108.168C32.2011 107.817 32.1781 107.494 32.1848 107.221C32.1911 106.964 32.2234 106.598 32.4231 106.264C32.6623 105.864 33.0287 105.682 33.348 105.605C33.6198 105.539 33.9172 105.535 34.1516 105.535C34.1739 105.535 34.1947 105.535 34.2141 105.535C34.2165 105.507 34.2189 105.476 34.221 105.442C34.239 105.16 34.2419 104.774 34.2419 104.22V101.905C34.2419 101.353 34.6897 100.905 35.2419 100.905H37.129H39.0161C39.5684 100.905 40.0161 101.353 40.0161 101.905V104.22Z" fill="#0000FF" stroke="#999999" stroke-width="2" stroke-linejoin="round"/>
<path d="M93.3226 106.693C92.0036 106.693 90.9377 105.939 90.4106 104.972C89.8811 104 89.8443 102.674 90.811 101.704C91.1126 101.401 91.5077 101.229 91.8377 101.127C92.1882 101.018 92.5735 100.955 92.9487 100.933C93.3243 100.911 93.7193 100.927 94.0905 100.994C94.445 101.057 94.8496 101.18 95.192 101.42C96.3852 102.235 96.5092 103.642 96.12 104.681C95.7292 105.724 94.7288 106.693 93.3226 106.693Z" fill="#0000FF" stroke="#999999" stroke-width="2" stroke-linejoin="round"/>
<path d="M21.8693 105.649L21.8693 105.649L21.8772 105.646C23.9166 104.847 25.9743 105.082 28.1343 106.143L28.1522 106.152C29.7308 106.966 30.8391 107.859 31.5047 109.454C32.1247 110.94 32.321 112.96 32.4251 115.885L32.4252 115.885L32.4254 115.895L32.5512 120.82C32.5581 121.089 32.4559 121.35 32.2676 121.543C32.0794 121.736 31.8212 121.845 31.5516 121.845H29.8322C29.2021 121.845 28.6119 121.809 28.1565 121.642C27.9102 121.552 27.6297 121.398 27.4152 121.122C27.3809 121.078 27.35 121.033 27.3223 120.987C27.3128 120.994 27.3032 121.002 27.2935 121.009L27.2766 121.022C26.8735 121.316 26.2756 121.509 25.7401 121.631C25.1663 121.761 24.5046 121.845 23.8774 121.845C21.812 121.845 20.0633 121.029 18.8509 119.541C17.6562 118.075 17.0483 116.041 17.0483 113.69C17.0483 109.85 18.6768 106.931 21.8693 105.649ZM27.1079 120.114C27.1077 120.113 27.1077 120.113 27.108 120.115L27.1079 120.114ZM25.7064 111.218L25.7047 111.216C25.1372 110.609 24.8197 110.523 24.6689 110.523C24.5119 110.523 24.1823 110.615 23.5904 111.228C23.5808 111.238 23.571 111.248 23.561 111.257C23.216 111.586 23.0706 111.811 22.9812 112.08C22.8776 112.392 22.8225 112.845 22.8225 113.69C22.8225 114.821 23.0555 115.513 23.3577 115.903C23.6253 116.249 24.0395 116.478 24.758 116.478C25.3504 116.478 26.0563 115.899 26.3699 114.593C26.6699 113.344 26.4331 111.992 25.7064 111.218Z" fill="#0000FF" stroke="#999999" stroke-width="2" stroke-linejoin="round"/>
<path d="M51.5377 121.759L51.5145 121.76C49.9797 121.827 48.6394 121.665 47.4821 121.163C46.308 120.653 45.3977 119.826 44.6769 118.695C43.2272 116.496 42.9359 113.794 43.5402 111.408C44.144 109.025 45.672 106.851 47.9896 105.796C48.9259 105.356 50.295 105.239 51.5106 105.294C52.7274 105.349 54.063 105.588 54.9538 106.07C55.1408 106.164 55.3812 106.292 55.5828 106.468C55.8278 106.682 56.0332 106.981 56.0927 107.383C56.1439 107.727 56.0703 108.05 55.995 108.296C55.9171 108.551 55.7992 108.839 55.6639 109.153C55.4543 109.665 55.187 110.149 54.8061 110.495C54.375 110.887 53.8345 111.065 53.2473 110.975C53.2326 110.972 53.2178 110.97 53.2031 110.967L51.3209 110.589C51.0286 110.534 50.8965 110.561 50.7738 110.614C50.6462 110.67 50.4816 110.776 50.2312 110.993L50.4295 111.011L50.4295 111.011L50.4366 111.011C50.9672 111.064 51.4123 111.111 51.7702 111.172C52.1161 111.23 52.4776 111.315 52.7918 111.488C53.1566 111.689 53.4086 111.98 53.5605 112.341C53.6879 112.645 53.7329 112.976 53.7638 113.235L53.7639 113.235L53.7653 113.247C53.7664 113.258 53.7676 113.269 53.7688 113.28C53.7957 113.531 53.8319 113.868 53.7933 114.164C53.7701 114.342 53.7152 114.561 53.5803 114.776C53.4396 115 53.2495 115.16 53.0454 115.268C52.695 115.454 52.2822 115.493 51.9614 115.512C51.6121 115.532 51.1611 115.532 50.6215 115.532H50.5903C50.1126 115.532 49.7461 115.553 49.4734 115.588C49.5654 115.696 49.6828 115.824 49.8309 115.973C50.0937 116.236 50.2602 116.326 50.4821 116.378C50.7705 116.445 51.2115 116.46 52.0686 116.397L52.0686 116.397L52.0793 116.396C52.5801 116.364 53.0081 116.343 53.3614 116.351C53.7069 116.36 54.0765 116.397 54.419 116.539C55.2149 116.871 55.4677 117.605 55.6378 118.098L55.6435 118.115C55.8056 118.569 55.933 119.075 55.8798 119.576C55.8189 120.149 55.5334 120.621 55.0652 120.955C54.6494 121.251 54.1241 121.414 53.5799 121.522C53.0204 121.633 52.3382 121.705 51.5377 121.759Z" fill="#0000FF" stroke="#999999" stroke-width="2" stroke-linejoin="round"/>
<path d="M60.6206 105.792L60.6206 105.792L60.6314 105.787C61.5348 105.392 62.3894 105.166 63.2987 105.172C64.2003 105.179 65.0771 105.414 66.0288 105.822L67.4854 106.407C67.7407 106.509 67.9424 106.712 68.0433 106.968C68.1441 107.224 68.135 107.51 68.0183 107.759L67.3479 109.189C67.3478 109.189 67.3477 109.19 67.3475 109.19C67.1931 109.52 67.0449 109.828 66.8933 110.075C66.7455 110.315 66.5262 110.615 66.1777 110.808C65.7914 111.022 65.402 111.025 65.0862 110.97C64.8046 110.922 64.5105 110.814 64.2456 110.712C63.8398 110.565 63.6691 110.553 63.5631 110.565C63.4581 110.576 63.2902 110.625 62.9205 110.866L62.9206 110.866L62.9106 110.872C62.7004 111.006 62.5578 111.144 62.4429 111.324C62.3215 111.513 62.2024 111.793 62.1036 112.246C61.8993 113.183 61.8225 114.646 61.8225 117.099V120.845C61.8225 121.397 61.3748 121.845 60.8225 121.845H58.9354H57.0483C56.4961 121.845 56.0483 121.397 56.0483 120.845V116.51C56.0483 115.31 56.0909 114.056 56.1662 112.993C56.2378 111.982 56.3456 111.029 56.5104 110.497C57.0981 108.492 58.6817 106.668 60.6206 105.792Z" fill="#0000FF" stroke="#999999" stroke-width="2" stroke-linejoin="round"/>
<path d="M72.1018 105.58L72.1159 105.575C73.1948 105.26 74.1478 105.113 75.1256 105.208C76.1005 105.304 77.0208 105.632 78.0453 106.146L78.0454 106.146L78.0555 106.152C79.6804 106.99 80.8235 108.043 81.5108 109.73C82.1662 111.339 82.371 113.444 82.371 116.3V120.845C82.371 121.397 81.9233 121.845 81.371 121.845H79.6936C79.0826 121.845 78.501 121.809 78.0486 121.64C77.8037 121.548 77.5264 121.393 77.3148 121.118C77.2818 121.075 77.2521 121.031 77.2254 120.987C77.216 120.994 77.2065 121.002 77.1969 121.009L77.1799 121.022C76.7768 121.316 76.1789 121.509 75.6434 121.631C75.0696 121.761 74.4079 121.845 73.7807 121.845C71.724 121.845 69.9794 120.998 68.769 119.508C67.574 118.037 66.9517 116.007 66.9517 113.69C66.9517 109.81 68.8396 106.587 72.1018 105.58ZM77.0112 120.114C77.011 120.113 77.011 120.113 77.0113 120.115L77.0112 120.114ZM75.4452 110.783L75.4452 110.783L75.435 110.777C74.9367 110.501 74.6721 110.484 74.4964 110.52C74.2939 110.56 73.9864 110.715 73.4958 111.226C73.4883 111.234 73.4807 111.241 73.4729 111.249C72.9909 111.72 72.6691 112.742 72.7348 113.924C72.8014 115.123 73.2354 115.998 73.703 116.307C73.711 116.312 73.7188 116.318 73.7265 116.323C73.8541 116.413 74.2195 116.513 74.7405 116.445C75.2591 116.376 75.6045 116.183 75.716 116.058L75.7292 116.043C76.2328 115.496 76.5266 114.36 76.4221 113.111C76.3721 112.514 76.235 111.965 76.0393 111.539C75.8383 111.101 75.6154 110.874 75.4452 110.783Z" fill="#0000FF" stroke="#999999" stroke-width="2" stroke-linejoin="round"/>
<path d="M91.4355 121.845C90.8833 121.845 90.4355 121.397 90.4355 120.845V113.69V106.535C90.4355 105.983 90.8833 105.535 91.4355 105.535H93.3226H95.2097C95.762 105.535 96.2097 105.983 96.2097 106.535V113.69V120.845C96.2097 121.397 95.762 121.845 95.2097 121.845H93.3226H91.4355Z" fill="#0000FF" stroke="#999999" stroke-width="2" stroke-linejoin="round"/>
<path d="M86.3612 121.845C84.9911 121.845 83.8188 121.213 83.2701 120.145C82.708 119.051 82.927 117.743 83.861 116.72C84.8303 115.656 86.2318 115.443 87.363 115.812C88.4967 116.181 89.4999 117.193 89.4999 118.657C89.4999 119.539 89.2866 120.385 88.6787 121.004C88.0675 121.626 87.2292 121.845 86.3612 121.845Z" fill="#0000FF" stroke="#999999" stroke-width="2" stroke-linejoin="round"/>
</svg>
